<svg xmlns="http://www.w3.org/2000/svg" viewBox="0 0 64 64"><g data-name="29-spy"><path transform="rotate(-45 57.25 57.25)" style="fill:#b24535" d="M53.714 52.654h7.071v9.192h-7.071z"/><path style="fill:#e66441" d="m56.5 51.5-5 5L49 54l1-1 3-3 1-1 2.5 2.5z"/><path d="m53 50-3 3-3.58-3.58a15.785 15.785 0 0 0 3-3zM24 53v4a6 6 0 0 1-12 0v-4zM25.01 23.04a16.978 16.978 0 0 0-1.21 24.79v.01a8.816 8.816 0 0 0-.07 1.16H12.27c0-4.74-3.27-7.89-3.27-16.58S12.27 19 18 19a7.662 7.662 0 0 1 7.01 4.04z" style="fill:#636978"/><path d="M25.01 23.04A7.662 7.662 0 0 0 18 19a9.794 9.794 0 0 0-1.041.055 7.589 7.589 0 0 1 6.051 3.985 16.978 16.978 0 0 0-1.21 24.79v.01a8.816 8.816 0 0 0-.07 1.16h2a8.816 8.816 0 0 1 .07-1.16v-.01a16.978 16.978 0 0 1 1.21-24.79z" style="fill:#555a66"/><path d="M46 14.42a27.953 27.953 0 0 1-.89 7.23 17 17 0 0 0-16.46-.98 28.844 28.844 0 0 1-.65-6.25C28 5.74 31.27 1 37 1s9 4.74 9 13.42z" style="fill:#636978"/><path d="M45.11 19.65a17 17 0 0 0-16.46-.98 28.56 28.56 0 0 1-.624-5.308c-.012.349-.026.7-.026 1.058a28.844 28.844 0 0 0 .65 6.25 17 17 0 0 1 16.46.98 27.953 27.953 0 0 0 .89-7.23c0-.293-.013-.569-.021-.853a27.327 27.327 0 0 1-.869 6.083z" style="fill:#555a66"/><path d="M26.5 27.13a25.563 25.563 0 0 1 .5 5.29 30.013 30.013 0 0 1-1.92 10.62 12.974 12.974 0 0 1 1.42-15.91zM43 35v4a6 6 0 0 1-12 0v-4zM43.86 25.66A16.469 16.469 0 0 0 42.73 31H31.27a19.691 19.691 0 0 0-1.5-6.41 12.967 12.967 0 0 1 14.09 1.07z" style="fill:#008cbe"/><path d="M43.86 25.66a12.992 12.992 0 1 1-18.78 17.38A30.013 30.013 0 0 0 27 32.42a25.563 25.563 0 0 0-.5-5.29 12.835 12.835 0 0 1 3.27-2.54 19.691 19.691 0 0 1 1.5 6.41h11.46a16.469 16.469 0 0 1 1.13-5.34zM43 39v-4H31v4a6 6 0 0 0 12 0z" style="fill:#00c8ff"/><path d="M29.77 26.59a19.691 19.691 0 0 1 1.5 6.41h11.46a16.469 16.469 0 0 1 1.13-5.34 12.916 12.916 0 0 1 5.085 9.421c.03-.357.055-.716.055-1.081a12.933 12.933 0 0 0-5.14-10.34A16.469 16.469 0 0 0 42.73 31H31.27a19.691 19.691 0 0 0-1.5-6.41 12.835 12.835 0 0 0-3.27 2.54c.116.544.2 1.125.281 1.722a12.775 12.775 0 0 1 2.989-2.262zM37 47a6 6 0 0 0 6-6v-2a6 6 0 0 1-12 0v2a6 6 0 0 0 6 6zM27 34.42c0-.372-.012-.729-.024-1.086a30.344 30.344 0 0 1-1.9 9.706c.139.217.3.414.455.622A28.658 28.658 0 0 0 27 34.42z" style="fill:#00b7e2"/><path d="M46.42 49.42a16.981 16.981 0 0 1-22.62-1.58v-.01a16.978 16.978 0 0 1 1.21-24.79 16.628 16.628 0 0 1 3.64-2.37 16.992 16.992 0 0 1 20.77 25.75 15.785 15.785 0 0 1-3 3zM49 36a12.994 12.994 0 1 0-13 13 12.933 12.933 0 0 0 13-13z" style="fill:#dce1eb"/><path d="M23.73 50H12.27a1 1 0 0 1-1-1 16.541 16.541 0 0 0-1.215-5.4A31.422 31.422 0 0 1 8 32.42C8 23.256 11.645 18 18 18a8.666 8.666 0 0 1 7.876 4.54l-1.732 1A6.677 6.677 0 0 0 18 20c-6.961 0-8 7.781-8 12.42a29.309 29.309 0 0 0 1.947 10.53A21.3 21.3 0 0 1 13.225 48h9.55c.01-.1.021-.2.034-.29l.955.125 1.036-.005a1.085 1.085 0 0 1-.009.14A7.864 7.864 0 0 0 24.73 49a1 1 0 0 1-1 1z"/><path d="m26.026 43.363-1.892-.646A28.874 28.874 0 0 0 26 32.42a24.562 24.562 0 0 0-.479-5.082l1.958-.416A26.7 26.7 0 0 1 28 32.42a31 31 0 0 1-1.974 10.943zM18 64a7.009 7.009 0 0 1-7-7v-4a1 1 0 0 1 1-1h12a1 1 0 0 1 1 1v4a7.009 7.009 0 0 1-7 7zm-5-10v3a5 5 0 0 0 10 0v-3zM46.078 21.9l-1.935-.5A27.232 27.232 0 0 0 45 14.42C45 9.781 43.961 2 37 2s-8 7.781-8 12.42a27.919 27.919 0 0 0 .627 6.036l-1.953.428A29.912 29.912 0 0 1 27 14.42C27 5.256 30.645 0 37 0s10 5.256 10 14.42a29.236 29.236 0 0 1-.922 7.48zM42.73 32H31.27a1 1 0 0 1-1-1 16.507 16.507 0 0 0-1.208-5.386l-.241-.705 1.9-.638.236.7A20.99 20.99 0 0 1 32.227 30h9.546a19.977 19.977 0 0 1 1.139-4.656l1.9.633A15.549 15.549 0 0 0 43.73 31a1 1 0 0 1-1 1zM37 46a7.009 7.009 0 0 1-7-7v-4a1 1 0 0 1 1-1h12a1 1 0 0 1 1 1v4a7.009 7.009 0 0 1-7 7zm-5-10v3a5 5 0 0 0 10 0v-3z"/><path d="M36 54a18 18 0 1 1 18-18 18.021 18.021 0 0 1-18 18zm0-34a16 16 0 1 0 16 16 16.019 16.019 0 0 0-16-16z"/><path d="M36 50a14 14 0 1 1 14-14 14.015 14.015 0 0 1-14 14zm0-26a12 12 0 1 0 12 12 12.013 12.013 0 0 0-12-12zM58 64a1 1 0 0 1-.707-.293l-9-9a1 1 0 0 1 0-1.414l5-5a1 1 0 0 1 1.414 0l9 9a1 1 0 0 1 0 1.414l-5 5A1 1 0 0 1 58 64zm-7.586-10L58 61.586 61.586 58 54 50.414z"/><path d="m50.292 56.293 6-6 1.414 1.415-6 6zM48.293 46.707l1.414-1.414 4 4-1.414 1.414zM45.293 49.708l1.414-1.414 4 4-1.414 1.414zM56 35h7v2h-7zM55.293 32.293l4-4 1.414 1.414-4 4zM55.293 39.708l1.414-1.415 4 4-1.414 1.415z"/></g></svg>